<mxfile host="app.diagrams.net" modified="2020-09-29T19:10:14.584Z" agent="5.0 (Windows NT 6.1; Win64; x64) AppleWebKit/537.36 (KHTML, like Gecko) Chrome/85.0.4183.121 Safari/537.36" etag="frJ1asZju_l5KjwThKFn" version="13.7.6" type="github">
  <diagram id="1ftm9GTHCNslqDj8-d5-" name="Page-1">
    <mxGraphModel dx="868" dy="450" grid="1" gridSize="10" guides="1" tooltips="1" connect="1" arrows="1" fold="1" page="1" pageScale="1" pageWidth="827" pageHeight="1169" math="0" shadow="0">
      <root>
        <mxCell id="0" />
        <mxCell id="1" parent="0" />
        <mxCell id="yXqmziSqFys9oVcgx0PZ-2" style="edgeStyle=orthogonalEdgeStyle;rounded=0;orthogonalLoop=1;jettySize=auto;html=1;" edge="1" parent="1" source="yXqmziSqFys9oVcgx0PZ-1">
          <mxGeometry relative="1" as="geometry">
            <mxPoint x="430" y="240" as="targetPoint" />
          </mxGeometry>
        </mxCell>
        <mxCell id="yXqmziSqFys9oVcgx0PZ-4" style="edgeStyle=orthogonalEdgeStyle;rounded=0;orthogonalLoop=1;jettySize=auto;html=1;exitX=1;exitY=0.5;exitDx=0;exitDy=0;entryX=0;entryY=0.5;entryDx=0;entryDy=0;" edge="1" parent="1" source="yXqmziSqFys9oVcgx0PZ-1" target="yXqmziSqFys9oVcgx0PZ-3">
          <mxGeometry relative="1" as="geometry" />
        </mxCell>
        <mxCell id="yXqmziSqFys9oVcgx0PZ-1" value="" style="rounded=1;whiteSpace=wrap;html=1;" vertex="1" parent="1">
          <mxGeometry x="350" y="10" width="120" height="50" as="geometry" />
        </mxCell>
        <mxCell id="yXqmziSqFys9oVcgx0PZ-3" value="" style="rounded=1;whiteSpace=wrap;html=1;" vertex="1" parent="1">
          <mxGeometry x="550" y="20" width="120" height="50" as="geometry" />
        </mxCell>
      </root>
    </mxGraphModel>
  </diagram>
</mxfile>
